<?xml version="1.0" encoding="UTF-8" standalone="no"?>
<svg
   xmlns:dc="http://purl.org/dc/elements/1.1/"
   xmlns:cc="http://creativecommons.org/ns#"
   xmlns:rdf="http://www.w3.org/1999/02/22-rdf-syntax-ns#"
   xmlns:svg="http://www.w3.org/2000/svg"
   xmlns="http://www.w3.org/2000/svg"
   xmlns:xlink="http://www.w3.org/1999/xlink"
   xmlns:sodipodi="http://sodipodi.sourceforge.net/DTD/sodipodi-0.dtd"
   xmlns:inkscape="http://www.inkscape.org/namespaces/inkscape"
   enable-background="new 0 0 100 50"
   version="1.1"
   viewBox="0 0 48 47.999999"
   xml:space="preserve"
   id="svg3705"
   sodipodi:docname="dicot.svg"
   width="48"
   height="48"
   inkscape:version="0.92+devel unknown"
   inkscape:export-filename="/home/berrange/dicot-512x512.png"
   inkscape:export-xdpi="1024"
   inkscape:export-ydpi="1024"><metadata
     id="metadata3711"><rdf:RDF><cc:Work
         rdf:about=""><dc:format>image/svg+xml</dc:format><dc:type
           rdf:resource="http://purl.org/dc/dcmitype/StillImage" /><dc:title></dc:title></cc:Work></rdf:RDF></metadata><defs
     id="defs3709"><radialGradient
       inkscape:collect="always"
       xlink:href="#d"
       id="radialGradient3490"
       gradientUnits="userSpaceOnUse"
       gradientTransform="matrix(1,0,0,-0.409,0,-11.342)"
       cx="45.299999"
       cy="-8.0497999"
       r="13.6" /></defs><sodipodi:namedview
     pagecolor="#ffffff"
     bordercolor="#666666"
     inkscape:document-rotation="0"
     borderopacity="1"
     objecttolerance="10"
     gridtolerance="10"
     guidetolerance="10"
     inkscape:pageopacity="0"
     inkscape:pageshadow="2"
     inkscape:window-width="1920"
     inkscape:window-height="1136"
     id="namedview3707"
     showgrid="false"
     fit-margin-top="0"
     fit-margin-left="0"
     fit-margin-right="0"
     fit-margin-bottom="0"
     inkscape:zoom="13.24"
     inkscape:cx="14.039993"
     inkscape:cy="24.787884"
     inkscape:window-x="0"
     inkscape:window-y="0"
     inkscape:window-maximized="1"
     inkscape:current-layer="svg3705" /><symbol
     id="e"
     viewBox="17.25 -14.35 45.6 33.575"
     transform="translate(-26.669977,-1.7878822)"><g
       clip-rule="evenodd"
       fill-rule="evenodd"
       id="g3683"><radialGradient
         id="d"
         cx="45.299999"
         cy="-8.0497999"
         r="13.6"
         gradientTransform="matrix(1,0,0,-0.409,0,-11.342)"
         gradientUnits="userSpaceOnUse"><stop
           stop-opacity=".5137"
           offset="0"
           id="stop3666" /><stop
           stop-opacity="0"
           offset="1"
           id="stop3668" /></radialGradient><path
         d="m 57.35,-12.5 c -3.333,-1.233 -7.35,-1.85 -12.05,-1.85 -4.7,0 -8.716,0.617 -12.05,1.85 -3.334,1.233 -5,2.717 -5,4.45 0,1.733 1.667,3.2 5,4.4 3.333,1.233 7.35,1.85 12.05,1.85 4.7,0 8.717,-0.617 12.05,-1.85 3.333,-1.2 5,-2.667 5,-4.4 0,-1.733 -1.667,-3.217 -5,-4.45 z"
         fill="url(#d)"
         id="path3671"
         inkscape:connector-curvature="0"
         style="fill:url(#radialGradient3490)" /><path
         d="m 17.7,12.8 c 1.033,-0.833 2.133,-1.183 3.3,-1.05 1.433,0.333 2.617,0.55 3.55,0.65 0.233,-0.167 1.184,-0.2 2.85,-0.1 1.067,0.067 1.983,0.217 2.75,0.45 1.1,0.4 2.167,0.783 3.2,1.15 1.267,0.434 2.583,0.6 3.95,0.5 l 1.65,-0.25 c 0.267,-0.167 0.5,-0.417 0.7,-0.75 0.4,-0.633 0.417,-1.383 0.05,-2.25 C 39.4,10.417 39.083,9.867 38.75,9.5 38.183,8.867 37.4,8.383 36.4,8.05 34.834,7.517 32.133,7.133 28.3,6.9 25.734,7.334 23.3,8.3 21,9.8 19.4,10.867 18.15,11.933 17.25,13 l 0.35,-0.15 c 0.033,-0.033 0.067,-0.05 0.1,-0.05 z m 37.65,-1.25 c -0.934,-0.633 -1.617,-0.983 -2.05,-1.05 -0.833,-0.2 -1.733,0.05 -2.7,0.75 -1.067,0.733 -1.2,1.567 -0.4,2.5 0.767,0.933 1.767,1.167 3,0.7 2.8,-1.033 3.517,-2 2.15,-2.9 z m -5,5.05 -0.95,0.25 c -0.733,0.2 -1.1,0.517 -1.1,0.95 0,0.333 0.25,0.7 0.75,1.1 0.967,0.233 1.883,0.333 2.75,0.3 l 0.8,-0.1 h 0.05 c 0.1,0 0.2,-0.017 0.3,-0.05 l 0.35,-0.1 c 0.867,-0.233 1.717,-0.667 2.55,-1.3 0.233,-0.2 0.45,-0.383 0.65,-0.55 0.1,-0.067 0.2,-0.15 0.3,-0.25 l 0.4,-0.3 c 0.333,-0.3 0.617,-0.517 0.85,-0.65 0.633,-0.767 0.9,-1.267 0.8,-1.5 -0.133,-0.267 -0.733,-0.183 -1.8,0.25 l 1.8,-0.25 -1.4,0.25 c -1.133,0.3 -2.25,0.75 -3.35,1.35 -1.133,0.6 -2.317,0.817 -3.55,0.65 -0.067,0 -0.133,-0.017 -0.2,-0.05 z M 33.1,17.5 c 0.566,-0.467 0.417,-0.85 -0.45,-1.15 -0.5,-0.2 -1.217,-0.633 -2.15,-1.3 -0.9,-0.566 -1.867,-0.816 -2.9,-0.75 -1.133,0.034 -1.2,0.534 -0.2,1.5 0.934,0.833 1.917,1.434 2.95,1.8 1.3,0.4 2.217,0.367 2.75,-0.1 z m 2.35,-3.7 c -1.333,-0.1 -2.583,-0.4 -3.75,-0.9 -1.4,-0.633 -1.917,-1.283 -1.55,-1.95 0.4,-0.733 1.117,-1.25 2.15,-1.55 1.034,-0.267 2.034,-0.233 3,0.1 1.633,0.533 2.517,1.45 2.65,2.75 0.1,0.567 0.033,0.967 -0.2,1.2 -0.333,0.333 -1.1,0.45 -2.3,0.35 z m -10.9,-1.4 c 0.767,0.067 1.917,0.233 3.45,0.5 -0.367,-0.1 -0.75,-0.183 -1.15,-0.25 -0.867,-0.167 -1.633,-0.25 -2.3,-0.25 z"
         fill="#82AE17"
         id="path3673"
         inkscape:connector-curvature="0" /><path
         d="M 28,12.9 C 26.467,12.633 25.317,12.467 24.55,12.4 23.617,12.3 22.433,12.084 21,11.75 c -1.167,-0.133 -2.267,0.217 -3.3,1.05 0.3,-0.133 0.667,-0.25 1.1,-0.35 1.2,-0.267 2.317,-0.184 3.35,0.25 0.033,0 1.4,1.1 4.1,3.3 2.133,1.7 4.35,2.633 6.65,2.8 1.133,0.067 2.15,0.05 3.05,-0.05 -0.733,0.067 -1.55,0.083 -2.45,0.05 1.333,-0.066 2.383,-0.417 3.15,-1.05 0.7,-0.6 0.8,-0.95 0.3,-1.05 -2,-0.367 -3.9,-1.15 -5.7,-2.35 C 30.383,13.717 29.3,13.233 28,12.9 Z m 22.35,3.7 c -0.533,-0.067 -1.467,-0.3 -2.8,-0.7 -0.966,-0.3 -1.533,-0.433 -1.7,-0.4 -0.2,0.067 -0.217,0.467 -0.05,1.2 0.133,0.466 0.434,0.9 0.9,1.3 -1.034,-0.6 -1.7,-1.217 -2,-1.85 L 44.5,15.3 c 0,-0.093 0.025,-0.202 0.075,-0.325 -0.083,0.19 -0.125,0.366 -0.125,0.525 0,0.833 0.733,1.667 2.2,2.5 1.7,0.933 3.417,1.333 5.15,1.2 -0.867,0.033 -1.783,-0.067 -2.75,-0.3 -0.5,-0.4 -0.75,-0.767 -0.75,-1.1 0,-0.433 0.367,-0.75 1.1,-0.95 z m 5,-5.05 c 1.367,0.9 0.65,1.867 -2.15,2.9 -1.233,0.466 -2.233,0.233 -3,-0.7 -0.8,-0.933 -0.667,-1.767 0.4,-2.5 0.967,-0.7 1.867,-0.95 2.7,-0.75 0.433,0.067 1.117,0.417 2.05,1.05 z m 1.7,3.1 c 1.067,-0.433 1.667,-0.517 1.8,-0.25 0.1,0.233 -0.167,0.733 -0.8,1.5 -0.233,0.133 -0.517,0.35 -0.85,0.65 1.1,-0.867 2.033,-1.283 2.8,-1.25 1,0.034 1.783,0.167 2.35,0.4 L 62.85,16 62.3,14.15 C 61.667,12.717 60.783,11.5 59.65,10.5 l 0.15,0.15 c -1.7,-0.8 -3.45,-1.3 -5.25,-1.5 -1.867,-0.2 -3.466,0.05 -4.8,0.75 -0.767,0.4 -1.583,1.067 -2.45,2 -0.533,0.567 -0.733,1.117 -0.6,1.65 0.133,0.4 0.483,0.867 1.05,1.4 0.5,0.466 1.433,0.733 2.8,0.8 1.333,0.067 2.333,-0.05 3,-0.35 0.534,-0.233 1.567,-0.467 3.1,-0.7 z M 33.1,17.5 c -0.533,0.467 -1.45,0.5 -2.75,0.1 -1.033,-0.367 -2.017,-0.967 -2.95,-1.8 -1,-0.966 -0.933,-1.466 0.2,-1.5 1.033,-0.066 2,0.184 2.9,0.75 0.933,0.667 1.65,1.1 2.15,1.3 0.867,0.3 1.017,0.683 0.45,1.15 z"
         fill="#6C9010"
         id="path3675"
         inkscape:connector-curvature="0" /><path
         d="m 41.8,11.35 c -0.566,-3.133 -4.05,-4.7 -10.45,-4.7 -0.667,0 -1.317,0.033 -1.95,0.1 L 28.8,6.8 c -0.2,0.034 -0.4,0.067 -0.6,0.1 h 0.1 c 3.833,0.233 6.534,0.617 8.1,1.15 1,0.333 1.783,0.817 2.35,1.45 0.333,0.367 0.65,0.917 0.95,1.65 0.367,0.867 0.35,1.617 -0.05,2.25 -0.2,0.333 -0.433,0.583 -0.7,0.75 L 37.3,14.4 c -1.367,0.1 -2.683,-0.066 -3.95,-0.5 -1.033,-0.367 -2.1,-0.75 -3.2,-1.15 -0.767,-0.233 -1.683,-0.383 -2.75,-0.45 -1.667,-0.1 -2.617,-0.066 -2.85,0.1 0.667,0 1.434,0.083 2.3,0.25 0.4,0.067 0.783,0.15 1.15,0.25 1.3,0.333 2.383,0.817 3.25,1.45 1.8,1.2 3.7,1.983 5.7,2.35 0.5,0.1 0.4,0.45 -0.3,1.05 -0.767,0.633 -1.816,0.983 -3.15,1.05 0.9,0.034 1.717,0.017 2.45,-0.05 l 4.85,-2.65 0.25,-0.5 c 0.1,-0.167 0.2,-0.35 0.3,-0.55 0,-0.066 0.017,-0.15 0.05,-0.25 l 0.05,-0.05 V 14.7 c 0.2,-0.1 0.4,-0.267 0.6,-0.5 0.567,-0.567 1.184,-1.5 1.85,-2.8 -0.066,1.333 -0.066,2.233 0,2.7 0.067,0.566 0.25,1.033 0.55,1.4 0,-0.159 0.042,-0.334 0.125,-0.525 -0.05,0.123 -0.075,0.231 -0.075,0.325 l 0.2,0.85 c 0.3,0.633 0.966,1.25 2,1.85 -0.467,-0.4 -0.767,-0.833 -0.9,-1.3 -0.167,-0.733 -0.15,-1.133 0.05,-1.2 0.167,-0.033 0.733,0.1 1.7,0.4 1.333,0.4 2.267,0.633 2.8,0.7 0.066,0.033 0.133,0.05 0.2,0.05 1.233,0.167 2.417,-0.05 3.55,-0.65 1.1,-0.6 2.217,-1.05 3.35,-1.35 l 1.4,-0.25 -1.8,0.25 -0.4,0.05 c -1.533,0.233 -2.566,0.466 -3.1,0.7 -0.667,0.3 -1.667,0.417 -3,0.35 -1.367,-0.067 -2.3,-0.333 -2.8,-0.8 -0.567,-0.534 -0.917,-1 -1.05,-1.4 -0.133,-0.533 0.066,-1.083 0.6,-1.65 0.867,-0.933 1.684,-1.6 2.45,-2 1.333,-0.7 2.933,-0.95 4.8,-0.75 1.8,0.2 3.55,0.7 5.25,1.5 L 59.65,10.5 C 58.283,9.333 56.4,8.7 54,8.6 51.667,8.5 49.583,8.95 47.75,9.95 47.683,9.983 47.633,10.016 47.6,10.05 46.567,10.65 45.85,11.3 45.45,12 45.217,11.467 45.166,10.9 45.3,10.3 45.567,8.9 45.683,7.95 45.65,7.45 45.95,6.483 46.167,5.383 46.3,4.15 46.4,3.217 46.45,2.4 46.45,1.7 l 0.3,-3.3 c 0.167,-2.233 0.7,-4.066 1.6,-5.5 l -0.9,-1.25 c -0.934,-0.767 -2.217,-1.083 -3.85,-0.95 -1.067,0.1 -1.934,0.316 -2.6,0.65 1.7,-0.167 2.883,0.167 3.55,1 0.534,0.7 0.8,1.883 0.8,3.55 0,0.267 -0.133,1.667 -0.4,4.2 -0.233,2.233 -0.3,4 -0.2,5.3 C 44.783,6 44.7,6.7 44.5,7.5 44.4,7.967 44.25,8.467 44.05,9 c -0.233,0.567 -0.5,1.183 -0.8,1.85 -0.567,1.167 -1.067,2.133 -1.5,2.9 L 41.7,13.8 c 0,-0.033 0.017,-0.083 0.05,-0.15 V 13.5 l 0.05,-0.3 c 0.067,-0.5 0.083,-0.983 0.05,-1.45 z"
         fill="#5A7A0C"
         id="path3677"
         inkscape:connector-curvature="0" /><path
         d="m 35.45,13.8 c 1.2,0.1 1.966,-0.017 2.3,-0.35 0.233,-0.233 0.3,-0.633 0.2,-1.2 -0.133,-1.3 -1.017,-2.217 -2.65,-2.75 -0.966,-0.333 -1.966,-0.367 -3,-0.1 -1.033,0.3 -1.75,0.817 -2.15,1.55 -0.367,0.667 0.15,1.316 1.55,1.95 1.167,0.5 2.417,0.8 3.75,0.9 z"
         fill="#92C41B"
         id="path3679"
         inkscape:connector-curvature="0" /><path
         d="m 41.35,15.05 c 0.233,-0.233 0.467,-0.517 0.7,-0.85 -0.2,0.233 -0.4,0.4 -0.6,0.5 v 0.05 L 41.4,14.8 c -0.033,0.1 -0.05,0.183 -0.05,0.25 z m 0.45,-3.7 0.05,0.4 c 0.033,0.467 0.017,0.95 -0.05,1.45 l -0.05,0.3 v 0.15 c -0.033,0.067 -0.05,0.117 -0.05,0.15 l 0.05,-0.05 c 0.433,-0.767 0.933,-1.733 1.5,-2.9 0.3,-0.667 0.567,-1.283 0.8,-1.85 0.2,-0.533 0.35,-1.033 0.45,-1.5 0.2,-0.8 0.283,-1.5 0.25,-2.1 -0.1,-1.3 -0.033,-3.066 0.2,-5.3 0.267,-2.533 0.4,-3.934 0.4,-4.2 0,-1.667 -0.267,-2.85 -0.8,-3.55 -0.667,-0.833 -1.85,-1.167 -3.55,-1 -0.367,0.167 -0.667,0.383 -0.9,0.65 -0.367,0.367 -0.567,0.733 -0.6,1.1 0.533,1.9 1.067,4.133 1.6,6.7 0.967,4.733 1.283,8.317 0.95,10.75 z"
         fill="#739A13"
         id="path3681"
         inkscape:connector-curvature="0" /></g></symbol><symbol
     id="f"
     viewBox="0 -23 80.9 23"
     transform="translate(-26.669977,-1.7878822)"><g
       clip-rule="evenodd"
       fill-rule="evenodd"
       id="g3698"><path
         d="M 77.85,-7.3 C 77.15,-7.433 75.916,-7.517 74.15,-7.55 72.65,-7.617 71.4,-7.8 70.4,-8.1 v -0.3 l -0.05,-0.25 c -0.1,-0.333 -0.333,-0.833 -0.7,-1.5 -0.233,-0.1 -0.6,-0.133 -1.1,-0.1 -0.333,-0.533 -0.533,-0.833 -0.6,-0.9 -0.267,0 -0.75,-0.05 -1.45,-0.15 -0.667,-0.133 -1.117,-0.184 -1.35,-0.15 0.3,-0.167 0.45,-0.35 0.45,-0.55 -0.033,-0.3 -0.033,-0.467 0,-0.5 -0.267,-0.1 -0.633,-0.133 -1.1,-0.1 -0.067,-0.066 -0.167,-0.233 -0.3,-0.5 -0.1,-0.167 -0.233,-0.3 -0.4,-0.4 -0.966,-0.067 -2.667,-0.467 -5.1,-1.2 -2.167,-0.667 -3.817,-0.95 -4.95,-0.85 1,-0.667 1.317,-1.383 0.95,-2.15 l -0.65,-0.1 c -0.033,-0.034 -0.117,-0.184 -0.25,-0.45 -0.1,-0.167 -0.233,-0.3 -0.4,-0.4 -6.566,-0.333 -13.167,0.05 -19.8,1.15 -0.9,0.167 -2.267,0.233 -4.1,0.2 -1.967,-0.034 -3.367,0 -4.2,0.1 -1.066,0.167 -1.8,0.5 -2.2,1 -0.467,0.6 0.083,1.117 1.65,1.55 l -1.5,0.05 0.75,0.55 c -0.9,0.033 -2.2,-0.133 -3.9,-0.5 -1.934,-0.434 -3.3,-0.667 -4.1,-0.7 -0.567,-0.033 -1.767,0.1 -3.6,0.4 -1.5,0.267 -2.633,0.267 -3.4,0 -1.1,0.3 -1.667,0.717 -1.7,1.25 -0.033,0.434 0.317,1.033 1.05,1.8 H 8.4 l -0.05,-0.05 c 0.467,0.267 0.917,0.434 1.35,0.5 0.5,0 0.883,0.017 1.15,0.05 0.333,0.2 0.6,0.333 0.8,0.4 l 1.25,0.5 c 0.633,0.3 1.05,0.483 1.25,0.55 l 1.8,0.45 c 0.133,0.4 0.617,0.6 1.45,0.6 0.967,-0.067 1.55,-0.083 1.75,-0.05 0.1,0.233 0.333,0.35 0.7,0.35 0.433,0 0.717,0.033 0.85,0.1 0.267,0.167 0.4,0.35 0.4,0.55 0,0.2 -0.133,0.317 -0.4,0.35 0.2,0.2 0.333,0.35 0.4,0.45 0.133,0.2 0.183,0.367 0.15,0.5 0.467,0.233 0.9,0.683 1.3,1.35 -3.933,-2.066 -6.5,-3.35 -7.7,-3.85 4.333,2.2 7.6,3.833 9.8,4.9 0.1,0.066 0.2,0.117 0.3,0.15 0.9,0 1.433,0.217 1.6,0.65 0.3,0.067 0.717,0.1 1.25,0.1 L 27.45,-3.6 c 0.233,-0.066 0.6,-0.017 1.1,0.15 0.667,0.267 1.067,0.417 1.2,0.45 h 1.45 c 0.333,-0.033 0.583,-0.05 0.75,-0.05 0.333,0.033 0.55,0.133 0.65,0.3 0.2,0.3 0.083,0.467 -0.35,0.5 -0.2,0 -0.533,-0.017 -1,-0.05 l -1.75,-0.1 -0.45,-0.25 0.05,0.3 c 2.033,0.633 3.9,0.883 5.6,0.75 l 0.3,0.1 c 0.2,-0.233 0.983,-0.083 2.35,0.45 1.233,0.267 2.167,0.483 2.8,0.65 h 0.1 c 1.167,-0.033 2.35,-0.05 3.55,-0.05 l -2,-0.05 c -1.133,0 -2.233,-0.183 -3.3,-0.55 -0.233,-0.1 -0.75,-0.284 -1.55,-0.55 -0.733,-0.267 -1.217,-0.533 -1.45,-0.8 l 0.05,-0.05 c -0.033,0 -0.066,-0.017 -0.1,-0.05 0.3,-0.167 0.816,-0.233 1.55,-0.2 0.833,0.067 1.417,0.1 1.75,0.1 h 5.6 c 3.767,0 6.167,-0.066 7.2,-0.2 3.967,-0.367 6.934,-0.65 8.9,-0.85 3.533,-0.333 6.316,-0.85 8.35,-1.55 0.534,-0.3 1.017,-0.55 1.45,-0.75 0.067,-0.033 0.15,-0.066 0.25,-0.1 0.9,-0.434 1.5,-0.534 1.8,-0.3 0.034,0 0.05,0.017 0.05,0.05 0.1,0.066 0.183,0.117 0.25,0.15 0.167,0.233 0.167,0.467 0,0.7 -0.1,0.167 -0.283,0.333 -0.55,0.5 -0.5,0.3 -1.167,0.583 -2,0.85 l -1.4,0.45 c -0.933,0.267 -1.783,0.517 -2.55,0.75 l -1.2,0.35 c -1.367,0.4 -2.316,0.667 -2.85,0.8 -2.566,0.6 -4.966,0.917 -7.2,0.95 -1.067,0 -2.817,0.066 -5.25,0.2 -1.692,0.087 -3.1,0.138 -4.225,0.15 2.216,0.044 4.508,0.145 6.875,0.3 1.333,0.066 2.967,-0.05 4.9,-0.35 0.333,-0.033 1.434,-0.117 3.3,-0.25 1.367,-0.067 2.4,-0.233 3.1,-0.5 1.034,-0.633 1.917,-1 2.65,-1.1 0.5,0.033 0.85,0.033 1.05,0 l 2.35,-0.3 c 0.367,-0.067 0.883,-0.35 1.55,-0.85 0.567,-0.433 1.167,-0.617 1.8,-0.55 l 0.3,0.4 c 0.867,-0.067 1.567,-0.1 2.1,-0.1 1.433,-0.4 2.517,-0.783 3.25,-1.15 0.4,-0.2 0.75,-0.417 1.05,-0.65 0.133,-0.1 0.267,-0.2 0.4,-0.3 -0.133,0.067 -0.25,0.15 -0.35,0.25 l -0.05,0.05 -0.3,0.2 c -0.5,-0.867 -1,-1.517 -1.5,-1.95 z m -37.6,6.9 -0.2,0.05 0.4,0.05 z M 75.2,-4.5 c -0.5,-0.2 -0.7,-0.483 -0.6,-0.85 0.1,-0.333 0.35,-0.5 0.75,-0.5 0.433,0.033 0.717,0.184 0.85,0.45 0.133,0.266 -0.05,0.4 -0.55,0.4 z M 61.95,-4.7 c -0.534,0 -0.983,-0.05 -1.35,-0.15 -0.2,-0.333 0.45,-0.533 1.95,-0.6 1.467,-0.066 2.4,0 2.8,0.2 l -2.1,0.5 c -0.267,0 -0.7,0.017 -1.3,0.05 z m 3.75,-1.9 c 0.4,-0.233 0.733,-0.367 1,-0.4 1.133,-0.2 1.65,0.017 1.55,0.65 H 67.8 c -0.3,0.267 -0.883,0.417 -1.75,0.45 -0.333,0 -1.033,-0.017 -2.1,-0.05 -0.167,-0.233 -0.25,-0.417 -0.25,-0.55 0.2,-0.067 0.517,-0.1 0.95,-0.1 0.533,0.033 0.883,0.033 1.05,0 z M 22.65,-7.85 c 0.6,-0.066 1.367,-0.083 2.3,-0.05 2.2,0.066 3.367,0.1 3.5,0.1 2.9,-0.167 5.533,-0.25 7.9,-0.25 1.6,0 6.267,-0.067 14,-0.2 l 2.1,-0.05 c 1.466,-0.034 3.216,-0.3 5.25,-0.8 0.1,-0.033 0.2,-0.066 0.3,-0.1 0.833,-0.267 1.467,-0.466 1.9,-0.6 0.867,-0.233 1.717,-0.284 2.55,-0.15 1.233,0.2 2.133,0.55 2.7,1.05 0.267,0.2 0.4,0.383 0.4,0.55 v 0.075 c -0.025,0.168 -0.141,0.326 -0.35,0.475 -0.5,0.367 -1.35,0.667 -2.55,0.9 -0.667,0.1 -1.667,0.25 -3,0.45 -2.933,0.567 -5,0.9 -6.2,1 -2.767,0.233 -5.934,0.434 -9.5,0.6 -4.067,0.2 -7.267,0.283 -9.6,0.25 -3.2,0 -5.333,-0.1 -6.4,-0.3 -1.867,-0.333 -4.034,-1.217 -6.5,-2.65 l 0.2,-0.05 c 0.133,-0.066 0.3,-0.117 0.5,-0.15 0.1,-0.033 0.217,-0.05 0.35,-0.05 0.033,0 0.083,-0.017 0.15,-0.05 z m 38.55,-2.9 c 0.233,-0.133 0.566,-0.167 1,-0.1 l 0.35,0.4 0.05,0.1 c -0.033,0 -0.283,-0.017 -0.75,-0.05 -0.3,-0.033 -0.517,-0.15 -0.65,-0.35 z m 2.7,0.8 c -0.7,-0.033 -1,-0.233 -0.9,-0.6 0.1,-0.4 0.517,-0.5 1.25,-0.3 0.733,0.167 1.1,0.383 1.1,0.65 -0.033,0.3 -0.383,0.417 -1.05,0.35 z m -7.95,5.8 c -0.1,0.1 -0.267,0.133 -0.5,0.1 l 0.15,0.1 c -0.133,0 -0.483,0.017 -1.05,0.05 -0.5,-0.033 -0.767,-0.167 -0.8,-0.4 0,-0.167 0.3,-0.267 0.9,-0.3 0.5,0 0.9,0.017 1.2,0.05 0.167,0.2 0.2,0.333 0.1,0.4 z M 60.5,-4.2 c -0.533,0 -0.917,-0.05 -1.15,-0.15 0.467,-0.167 0.95,-0.183 1.45,-0.05 0.067,0.1 0.017,0.2 -0.15,0.3 z m -4.15,-17.5 c -0.434,-0.2 -0.9,-0.383 -1.4,-0.55 0.466,0.167 0.917,0.35 1.35,0.55 z m 0.45,4.8 0.15,-0.25 -0.45,0.3 z m -4.25,2.625 c 0.521,0.05 1.146,0.2 1.875,0.45 0.072,0.027 0.138,0.052 0.2,0.075 0.063,0.013 0.121,0.03 0.175,0.05 l 0.7,0.25 c 0.9,0.434 1.25,0.817 1.05,1.15 -0.066,0.1 -0.15,0.2 -0.25,0.3 l -0.25,0.1 c -0.433,0.233 -1.1,0.45 -2,0.65 -0.5,0.133 -1.233,0.3 -2.2,0.5 -2.333,0.633 -4.684,0.95 -7.05,0.95 -5.966,0 -14.617,0.1 -25.95,0.3 l -1.35,0.05 c -1.233,-0.3 -2.467,-0.783 -3.7,-1.45 l -0.575,-0.4 c -0.335,-0.275 -0.394,-0.475 -0.175,-0.6 0.133,-0.067 0.4,-0.117 0.8,-0.15 0.233,-0.034 0.5,-0.05 0.8,-0.05 0.5,-0.033 1.1,-0.066 1.8,-0.1 h 6.05 c 2.967,0.067 5.183,0.05 6.65,-0.05 2.133,-0.167 6.533,-0.317 13.2,-0.45 1.367,-0.033 3,-0.25 4.9,-0.65 0.269,-0.054 0.528,-0.104 0.775,-0.15 0.216,-0.057 0.424,-0.107 0.625,-0.15 l 1.2,-0.25 c 0.967,-0.167 1.65,-0.283 2.05,-0.35 0.067,0 0.15,-0.017 0.25,-0.05 h 0.05 z m 4.5,4.775 -0.3,-0.1 c -0.433,0.033 -0.883,-0.05 -1.35,-0.25 -0.133,-0.433 0.25,-0.7 1.15,-0.8 0.367,-0.033 1.083,-0.017 2.15,0.05 0.267,0.367 0.3,0.667 0.1,0.9 -0.133,0.133 -0.4,0.3 -0.8,0.5 z m -3.1,0.4 c -0.267,-0.233 0.1,-0.35 1.1,-0.35 0.967,0 1.617,0.067 1.95,0.2 l -0.8,0.35 c -0.133,0 -0.5,0.017 -1.1,0.05 -0.567,0.033 -0.95,-0.05 -1.15,-0.25 z m -7.45,5.2 c -0.467,-0.067 -0.817,-0.184 -1.05,-0.35 0.167,-0.1 0.533,-0.117 1.1,-0.05 l 0.25,0.25 z m 1.85,0.2 c 0.6,-0.1 1.117,-0.15 1.55,-0.15 0.833,0 1.267,0.217 1.3,0.65 -0.233,0.067 -0.483,0.067 -0.75,0 L 49.8,-3.3 C 49,-3.2 48.517,-3.333 48.35,-3.7 Z M 42.5,-3.2 C 42.2,-3.233 42,-3.3 41.9,-3.4 41.8,-3.533 41.834,-3.65 42,-3.75 c 0.2,-0.1 0.483,-0.117 0.85,-0.05 0.4,0.066 0.65,0.2 0.75,0.4 -0.167,0.133 -0.383,0.167 -0.65,0.1 z m 3.05,-0.35 c 0,-0.3 0.284,-0.333 0.85,-0.1 -0.167,0.133 -0.6,0.2 -1.3,0.2 z m -5,0.7 c -0.3,0.133 -0.833,0.167 -1.6,0.1 -0.733,-0.033 -1.3,-0.133 -1.7,-0.3 0.1,-0.267 0.7,-0.417 1.8,-0.45 1.1,-0.033 1.767,0.067 2,0.3 z m 7.3,-12.4 c -0.1,-0.1 -0.217,-0.183 -0.35,-0.25 0.633,-0.167 1.1,-0.017 1.4,0.45 0.333,0.433 0.133,0.65 -0.6,0.65 l -0.05,-0.15 v -0.25 c -0.033,-0.034 -0.067,-0.067 -0.1,-0.1 -0.067,-0.1 -0.15,-0.2 -0.25,-0.3 -0.033,0 -0.066,-0.017 -0.1,-0.05 z m -1,0.25 c 0.367,-0.133 0.667,-0.033 0.9,0.3 l -0.1,0.4 -1.1,-0.1 c -0.2,-0.3 -0.1,-0.5 0.3,-0.6 z m -2.8,-0.35 c -0.4,-0.133 -0.566,-0.316 -0.5,-0.55 0.067,-0.167 0.35,-0.233 0.85,-0.2 0.467,0.067 0.767,0.217 0.9,0.45 l -0.4,0.4 c -0.233,0.033 -0.517,0 -0.85,-0.1 z m -2,1.35 c -0.2,-0.4 -0.35,-0.667 -0.45,-0.8 h -0.4 c 0.066,-0.233 0.367,-0.383 0.9,-0.45 0.6,-0.067 1.033,0.05 1.3,0.35 0.3,0.3 0.333,0.566 0.1,0.8 -0.233,0.2 -0.517,0.3 -0.85,0.3 -0.267,0.066 -0.55,0.066 -0.85,0 0.067,-0.067 0.15,-0.133 0.25,-0.2 z m -0.65,0.3 c -0.133,0 -0.583,0.05 -1.35,0.15 -0.7,0 -1.117,-0.184 -1.25,-0.55 -0.1,-0.233 0.017,-0.383 0.35,-0.45 0.467,-0.067 0.767,-0.1 0.9,-0.1 0.934,-0.1 1.483,0.133 1.65,0.7 z m -4.25,10.4 -0.75,0.25 c -0.133,0 -0.533,0.017 -1.2,0.05 -0.6,0 -1,-0.1 -1.2,-0.3 -0.167,-0.167 -0.183,-0.3 -0.05,-0.4 0.033,-0.033 0.2,-0.083 0.5,-0.15 0.633,-0.1 1.1,-0.15 1.4,-0.15 0.567,0.067 1,0.3 1.3,0.7 z m -3.85,0.55 h -0.2 c -0.167,-0.1 -0.25,-0.233 -0.25,-0.4 0.3,-0.1 0.633,-0.133 1,-0.1 0.167,0.233 0.183,0.383 0.05,0.45 -0.133,0.1 -0.333,0.117 -0.6,0.05 z M 31.1,-8.7 h -0.85 l 0.1,0.15 c -0.3,-0.267 -0.267,-0.417 0.1,-0.45 0.367,-0.033 0.583,0.067 0.65,0.3 z m -4.35,4.35 c -0.167,0 -0.417,-0.017 -0.75,-0.05 l -1.5,-0.25 c -0.667,-0.233 -1.017,-0.483 -1.05,-0.75 0.833,-0.133 2.05,0.117 3.65,0.75 0.033,0.2 -0.083,0.3 -0.35,0.3 z m 0.8,-0.2 c 0.333,-0.034 0.567,-0.05 0.7,-0.05 0.3,0.033 0.467,0.15 0.5,0.35 L 28.5,-4.2 28.4,-4.3 H 27.6 Z M 22.8,-8.05 C 22.433,-8.117 22.167,-8.233 22,-8.4 c 0.3,-0.133 0.683,-0.2 1.15,-0.2 0.533,0 0.9,0.1 1.1,0.3 z m 4.8,-1.1 c 0.9,0 1.533,0.117 1.9,0.35 l -1.1,0.35 c -0.167,0 -0.667,0.017 -1.5,0.05 -0.767,-0.033 -1.183,-0.233 -1.25,-0.6 0.8,-0.067 1.45,-0.117 1.95,-0.15 z m 2.5,-4 -0.35,0.25 c -0.8,0 -1.333,-0.15 -1.6,-0.45 1,-0.1 1.65,-0.033 1.95,0.2 z m -9.75,-0.1 c 0.167,-0.1 0.367,-0.133 0.6,-0.1 0.233,0.033 0.383,0.133 0.45,0.3 l -0.25,0.05 -0.05,0.05 c -0.3,0.067 -0.55,-0.033 -0.75,-0.3 z m 14.35,-2.1 c -0.333,-0.066 -0.583,-0.183 -0.75,-0.35 0.4,-0.267 1.15,-0.333 2.25,-0.2 1.2,0.133 1.867,0.483 2,1.05 h -0.15 v 0.1 L 37.6,-14.9 36.15,-15.2 H 34.6 c 0,-0.033 0.033,-0.083 0.1,-0.15 z m 2.55,1.2 -0.55,-0.1 c -0.2,0 -0.534,0.017 -1,0.05 -0.434,-0.033 -0.75,-0.167 -0.95,-0.4 0.633,-0.066 1.133,-0.083 1.5,-0.05 0.2,0 0.4,0.033 0.6,0.1 0.167,0.2 0.3,0.333 0.4,0.4 z M 30.8,-13 c -0.267,-0.333 -0.783,-0.5 -1.55,-0.5 0.1,-0.3 0.5,-0.433 1.2,-0.4 0.767,0.066 1.2,0.333 1.3,0.8 z m -21.75,1.55 c 0.3,0.167 0.6,0.317 0.9,0.45 0.133,0.067 0.333,0.15 0.6,0.25 -0.6,-0.267 -1.1,-0.5 -1.5,-0.7 z m 1.55,-0.7 c 0.533,-0.133 0.967,-0.2 1.3,-0.2 0.667,-0.033 0.95,0.133 0.85,0.5 H 11.3 c -0.167,0.067 -0.367,0.067 -0.6,0 -0.067,-0.067 -0.1,-0.167 -0.1,-0.3 z m -7.55,-3.1 c 0.233,0.2 0.5,0.4 0.8,0.6 0.267,0.167 0.517,0.316 0.75,0.45 z m 14.35,2.2 c -0.633,0 -1.033,-0.067 -1.2,-0.2 -0.3,-0.267 -0.133,-0.467 0.5,-0.6 2.2,0.033 3.233,0.233 3.1,0.6 l -1.15,0.1 c -0.133,0 -0.55,0.033 -1.25,0.1 z m -5.25,0.25 c -0.1,0 -0.217,0.05 -0.35,0.15 l -0.4,-0.15 c -0.7,0.133 -1.2,0.017 -1.5,-0.35 0.2,-0.233 0.6,-0.333 1.2,-0.3 0.667,0.033 1.017,0.25 1.05,0.65 z m 0.05,-1 c 0.3,0 0.466,0.117 0.5,0.35 l -0.05,0.65 c -0.2,-0.434 -0.45,-0.65 -0.75,-0.65 -0.1,-0.233 0,-0.35 0.3,-0.35 z"
         fill="#593D22"
         id="path3686"
         inkscape:connector-curvature="0" /><path
         d="m 56.8,-16.9 c 0.333,-0.033 0.65,-0.117 0.95,-0.25 0.367,-0.2 0.633,-0.333 0.8,-0.4 0.534,-0.2 1.05,-0.267 1.55,-0.2 0.267,0.5 0.717,0.917 1.35,1.25 0.267,0.133 1.367,0.467 3.3,1 l 0.6,0.9 0.6,-0.05 c 1.566,0 2.9,0.517 4,1.55 0.833,0.8 1.133,1.583 0.9,2.35 -0.067,0.233 -0.267,0.517 -0.6,0.85 L 70.9,-10 c 1.4,-0.4 1.917,-1.25 1.55,-2.55 H 73 l 0.35,0.05 c 0.233,0.067 0.983,0.433 2.25,1.1 0.533,0.333 1.1,0.517 1.7,0.55 L 78,-9.9 c 0.333,0.566 0.533,1.017 0.6,1.35 l -0.85,0.05 c -0.967,0.167 -1.5,0.25 -1.6,0.25 0.7,0.267 1.267,0.583 1.7,0.95 0.5,0.433 1,1.083 1.5,1.95 l 0.3,-0.2 0.05,-0.05 c 0.1,-0.1 0.216,-0.183 0.35,-0.25 0.567,-0.533 0.85,-1.117 0.85,-1.75 0,-0.4 -0.117,-0.816 -0.35,-1.25 -0.1,-0.2 -0.233,-0.4 -0.4,-0.6 l -0.65,-0.8 c -0.267,-0.267 -0.55,-0.517 -0.85,-0.75 -1.066,-0.867 -2.6,-1.65 -4.6,-2.35 -0.167,-0.066 -0.333,-0.133 -0.5,-0.2 l -0.85,-0.3 c -1.034,-0.333 -2.233,-0.717 -3.6,-1.15 -0.6,-0.233 -1.75,-0.6 -3.45,-1.1 -1.533,-0.467 -2.65,-0.85 -3.35,-1.15 -0.966,-0.433 -2.017,-1.183 -3.15,-2.25 -1.167,-1.133 -2.1,-1.867 -2.8,-2.2 H 56.3 c -0.433,-0.2 -0.883,-0.383 -1.35,-0.55 L 49.65,-23 c -0.633,0.033 -1.3,0.067 -2,0.1 -2,0.1 -4.633,0.4 -7.9,0.9 -2.767,0.267 -6.567,0.4 -11.4,0.4 -5.8,0 -9.617,0.05 -11.45,0.15 -2.233,0.1 -5.083,0.45 -8.55,1.05 -4.367,0.733 -7.15,1.167 -8.35,1.3 0.033,0.2 0.333,0.684 0.9,1.45 0.7,-0.967 2.684,-1.333 5.95,-1.1 3.566,0.467 5.8,0.717 6.7,0.75 1.5,0.033 3.534,-0.25 6.1,-0.85 2.8,-0.7 4.817,-1.083 6.05,-1.15 0.667,-0.033 2.966,-0.083 6.9,-0.15 2.833,-0.067 5.033,-0.25 6.6,-0.55 1.6,-0.466 2.783,-0.8 3.55,-1 1.3,-0.333 2.617,-0.466 3.95,-0.4 1,0.033 2.233,0.233 3.7,0.6 1.5,0.333 2.767,0.533 3.8,0.6 0.466,0.566 0.85,0.917 1.15,1.05 0.367,0.167 0.833,0.233 1.4,0.2 0.533,0.6 0.783,1.117 0.75,1.55 0,0.367 -0.183,0.684 -0.55,0.95 z"
         fill="#3B291A"
         id="path3688"
         inkscape:connector-curvature="0" /><path
         d="m 35,-1.5 2.45,0.85 2.6,0.3 0.2,-0.05 0.2,0.1 0.45,0.05 c 1.9,0.167 4.167,0.25 6.8,0.25 3,-0.067 5.283,-0.083 6.85,-0.05 3.3,0.033 6.583,-0.3 9.85,-1 3.767,-0.934 6.684,-1.65 8.75,-2.15 0.467,-0.1 0.917,-0.216 1.35,-0.35 l 0.9,-0.2 h -0.05 c -0.533,0 -1.233,0.033 -2.1,0.1 l -0.3,-0.4 c -0.633,-0.067 -1.233,0.117 -1.8,0.55 -0.667,0.5 -1.183,0.783 -1.55,0.85 l -2.35,0.3 c -0.2,0.033 -0.55,0.033 -1.05,0 -0.733,0.1 -1.617,0.467 -2.65,1.1 -0.7,0.267 -1.733,0.433 -3.1,0.5 -1.867,0.133 -2.967,0.217 -3.3,0.25 -1.933,0.3 -3.566,0.417 -4.9,0.35 -2.367,-0.156 -4.659,-0.256 -6.875,-0.3 H 43.8 c -1.2,0 -2.383,0.017 -3.55,0.05 h -0.1 C 39.517,-0.567 38.584,-0.783 37.35,-1.05 35.983,-1.583 35.2,-1.733 35,-1.5 Z M 24.95,-4 h -0.1 c 1.667,0.767 3.083,1.333 4.25,1.7 v -0.05 l -0.05,-0.3 0.45,0.25 1.75,0.1 c 0.467,0.033 0.8,0.05 1,0.05 0.433,-0.033 0.55,-0.2 0.35,-0.5 -0.1,-0.167 -0.317,-0.267 -0.65,-0.3 -0.167,0 -0.417,0.017 -0.75,0.05 h -1.45 c -0.133,-0.033 -0.533,-0.183 -1.2,-0.45 -0.5,-0.167 -0.867,-0.216 -1.1,-0.15 l 0.35,0.35 c -0.533,0 -0.95,-0.033 -1.25,-0.1 C 26.383,-3.783 25.85,-4 24.95,-4 Z M 8.4,-11.8 v 0.05 c 0.167,0.1 0.383,0.2 0.65,0.3 0.4,0.2 0.9,0.434 1.5,0.7 l 1.1,0.4 c 0.8,0.333 1.867,0.767 3.2,1.3 1.2,0.5 3.767,1.783 7.7,3.85 -0.4,-0.667 -0.833,-1.117 -1.3,-1.35 0.033,-0.133 -0.017,-0.3 -0.15,-0.5 -0.067,-0.1 -0.2,-0.25 -0.4,-0.45 0.267,-0.033 0.4,-0.15 0.4,-0.35 0,-0.2 -0.133,-0.383 -0.4,-0.55 -0.133,-0.067 -0.417,-0.1 -0.85,-0.1 -0.367,0 -0.6,-0.117 -0.7,-0.35 -0.2,-0.033 -0.783,-0.017 -1.75,0.05 -0.833,0 -1.316,-0.2 -1.45,-0.6 l -1.8,-0.45 c -0.2,-0.066 -0.617,-0.25 -1.25,-0.55 l -1.25,-0.5 c -0.2,-0.067 -0.467,-0.2 -0.8,-0.4 -0.267,-0.034 -0.65,-0.05 -1.15,-0.05 -0.434,-0.066 -0.883,-0.233 -1.35,-0.5 z m 53.55,7.1 c 0.6,-0.033 1.033,-0.05 1.3,-0.05 l 2.1,-0.5 c -0.4,-0.2 -1.333,-0.267 -2.8,-0.2 -1.5,0.067 -2.15,0.267 -1.95,0.6 0.367,0.1 0.817,0.15 1.35,0.15 z m -0.75,-6.05 c 0.133,0.2 0.35,0.317 0.65,0.35 0.467,0.033 0.717,0.05 0.75,0.05 l -0.05,-0.1 -0.35,-0.4 c -0.433,-0.067 -0.767,-0.033 -1,0.1 z m -0.7,6.55 0.15,0.1 c 0.167,-0.1 0.217,-0.2 0.15,-0.3 -0.5,-0.133 -0.983,-0.117 -1.45,0.05 0.233,0.1 0.617,0.15 1.15,0.15 z m -4.55,0.05 c 0.1,-0.067 0.066,-0.2 -0.1,-0.4 -0.3,-0.034 -0.7,-0.05 -1.2,-0.05 -0.6,0.033 -0.9,0.133 -0.9,0.3 0.033,0.233 0.3,0.367 0.8,0.4 0.567,-0.033 0.917,-0.05 1.05,-0.05 l -0.15,-0.1 c 0.233,0.033 0.4,0 0.5,-0.1 z m -2,-4.95 c 0.2,0.2 0.583,0.283 1.15,0.25 0.6,-0.033 0.967,-0.05 1.1,-0.05 L 57,-9.25 c -0.333,-0.133 -0.983,-0.2 -1.95,-0.2 -1,0 -1.367,0.117 -1.1,0.35 z m -5.6,5.4 c 0.167,0.367 0.65,0.5 1.45,0.4 l 0.65,0.1 c 0.267,0.067 0.517,0.067 0.75,0 -0.034,-0.433 -0.467,-0.65 -1.3,-0.65 -0.433,0 -0.95,0.05 -1.55,0.15 z M 46.5,-3.9 46.8,-4.05 46.55,-4.3 c -0.566,-0.067 -0.933,-0.05 -1.1,0.05 0.233,0.167 0.583,0.283 1.05,0.35 z m -5.95,1.05 0.5,-0.35 c -0.233,-0.233 -0.9,-0.333 -2,-0.3 -1.1,0.033 -1.7,0.183 -1.8,0.45 0.4,0.167 0.967,0.267 1.7,0.3 0.767,0.067 1.3,0.033 1.6,-0.1 z m 5,-0.7 -0.45,0.1 c 0.7,0 1.133,-0.066 1.3,-0.2 -0.567,-0.233 -0.85,-0.2 -0.85,0.1 z m -3.05,0.35 0.45,-0.1 c 0.267,0.066 0.483,0.033 0.65,-0.1 -0.1,-0.2 -0.35,-0.333 -0.75,-0.4 -0.367,-0.067 -0.65,-0.05 -0.85,0.05 -0.167,0.1 -0.2,0.217 -0.1,0.35 0.1,0.1 0.3,0.167 0.6,0.2 z m 1.55,-12.15 c 0.333,0.1 0.617,0.133 0.85,0.1 l 0.4,-0.4 c -0.133,-0.233 -0.433,-0.383 -0.9,-0.45 -0.5,-0.033 -0.783,0.033 -0.85,0.2 -0.067,0.233 0.1,0.417 0.5,0.55 z m 2.8,0.35 c -0.4,0.1 -0.5,0.3 -0.3,0.6 l 1.1,0.1 0.1,-0.4 c -0.233,-0.333 -0.533,-0.433 -0.9,-0.3 z m -5.45,1.3 0.3,-0.25 c -0.167,-0.566 -0.717,-0.8 -1.65,-0.7 -0.133,0 -0.433,0.033 -0.9,0.1 -0.333,0.066 -0.45,0.216 -0.35,0.45 0.133,0.367 0.55,0.55 1.25,0.55 0.767,-0.1 1.217,-0.15 1.35,-0.15 z m -4.25,10.4 c -0.3,-0.4 -0.733,-0.633 -1.3,-0.7 -0.3,0 -0.767,0.05 -1.4,0.15 -0.3,0.067 -0.467,0.117 -0.5,0.15 -0.133,0.1 -0.117,0.233 0.05,0.4 0.2,0.2 0.6,0.3 1.2,0.3 0.667,-0.033 1.066,-0.05 1.2,-0.05 z M 31.1,-8.7 c -0.067,-0.233 -0.283,-0.333 -0.65,-0.3 -0.367,0.033 -0.4,0.183 -0.1,0.45 l -0.1,-0.15 z m 2.2,5.95 c 0.267,0.067 0.467,0.05 0.6,-0.05 0.133,-0.067 0.117,-0.217 -0.05,-0.45 -0.367,-0.033 -0.7,0 -1,0.1 0,0.167 0.083,0.3 0.25,0.4 z m -5.75,-1.8 0.05,0.25 h 0.8 l 0.1,0.1 0.25,-0.05 c -0.033,-0.2 -0.2,-0.317 -0.5,-0.35 -0.133,0 -0.367,0.017 -0.7,0.05 z m -0.8,0.2 c 0.267,0 0.383,-0.1 0.35,-0.3 -1.6,-0.633 -2.817,-0.883 -3.65,-0.75 0.033,0.267 0.383,0.517 1.05,0.75 L 26,-4.4 c 0.333,0.033 0.583,0.05 0.75,0.05 z m -6.4,-8.9 c 0.2,0.267 0.45,0.367 0.75,0.3 l 0.05,-0.05 0.25,-0.05 c -0.066,-0.167 -0.217,-0.267 -0.45,-0.3 -0.233,-0.033 -0.433,0 -0.6,0.1 z m 9.75,0.1 c -0.3,-0.233 -0.95,-0.3 -1.95,-0.2 0.267,0.3 0.8,0.45 1.6,0.45 z m -2.5,4 c -0.5,0.033 -1.15,0.083 -1.95,0.15 0.067,0.367 0.483,0.567 1.25,0.6 0.833,-0.033 1.333,-0.05 1.5,-0.05 l 1.1,-0.35 c -0.367,-0.233 -1,-0.35 -1.9,-0.35 z m 9.65,-5 c -0.1,-0.067 -0.233,-0.2 -0.4,-0.4 -0.2,-0.067 -0.4,-0.1 -0.6,-0.1 -0.367,-0.033 -0.867,-0.017 -1.5,0.05 0.2,0.233 0.517,0.367 0.95,0.4 0.466,-0.033 0.8,-0.05 1,-0.05 z m -26.65,2 c 0,0.133 0.033,0.233 0.1,0.3 0.233,0.067 0.433,0.067 0.6,0 h 1.45 c 0.1,-0.367 -0.183,-0.533 -0.85,-0.5 -0.333,0 -0.767,0.067 -1.3,0.2 z m 6.8,-0.9 c 0.7,-0.067 1.117,-0.1 1.25,-0.1 l 1.15,-0.1 c 0.133,-0.367 -0.9,-0.567 -3.1,-0.6 -0.633,0.133 -0.8,0.333 -0.5,0.6 0.167,0.133 0.567,0.2 1.2,0.2 z m -5.2,-0.75 c -0.3,0 -0.4,0.117 -0.3,0.35 0.3,0 0.55,0.217 0.75,0.65 l 0.05,-0.65 c -0.033,-0.233 -0.2,-0.35 -0.5,-0.35 z"
         fill="#6A4A2B"
         id="path3690"
         inkscape:connector-curvature="0" /><path
         d="m 72.6,-5.45 c 0.1,-0.167 0.117,-0.333 0.05,-0.5 0,-0.066 -0.017,-0.133 -0.05,-0.2 -0.067,-0.033 -0.15,-0.083 -0.25,-0.15 0,-0.034 -0.017,-0.05 -0.05,-0.05 -0.3,-0.233 -0.9,-0.133 -1.8,0.3 -0.1,0.033 -0.183,0.066 -0.25,0.1 -0.333,0.167 -0.683,0.35 -1.05,0.55 l 0.7,-0.1 c 0.467,-0.1 0.8,-0.167 1,-0.2 0.434,-0.066 0.817,-0.083 1.15,-0.05 l 0.05,0.15 c 0.066,0.167 0.05,0.367 -0.05,0.6 v 0.05 c 0.267,-0.167 0.45,-0.333 0.55,-0.5 z m -22.25,-2.8 -1.3,0.05 c 3.6,0.133 5.983,0.1 7.15,-0.1 1.2,-0.133 2.05,-0.284 2.55,-0.45 0.933,-0.433 1.65,-0.733 2.15,-0.9 0.333,-0.133 0.934,-0.1 1.8,0.1 0.9,0.233 1.6,0.517 2.1,0.85 0.267,0.2 0.434,0.367 0.5,0.5 -0.033,0.167 -0.05,0.284 -0.05,0.35 0.175,-0.146 0.275,-0.288 0.3,-0.425 V -8.35 c 0,-0.167 -0.133,-0.35 -0.4,-0.55 -0.566,-0.5 -1.467,-0.85 -2.7,-1.05 -0.833,-0.133 -1.684,-0.083 -2.55,0.15 -0.433,0.133 -1.066,0.333 -1.9,0.6 -0.1,0.034 -0.2,0.067 -0.3,0.1 -2.034,0.5 -3.784,0.767 -5.25,0.8 z m -2.325,-5.25 c -0.279,0.058 -0.571,0.124 -0.875,0.2 2.133,-0.267 3.783,-0.4 4.95,-0.4 1.867,0.034 3.117,0.367 3.75,1 0.033,0.034 0.066,0.067 0.1,0.1 l 0.15,0.1 c 0.1,0.167 0.167,0.333 0.2,0.5 0.1,-0.1 0.184,-0.2 0.25,-0.3 0.1,-0.233 -0.033,-0.467 -0.4,-0.7 -0.167,-0.133 -0.383,-0.283 -0.65,-0.45 l -0.7,-0.25 c -0.054,-0.02 -0.112,-0.037 -0.175,-0.05 -0.062,-0.023 -0.128,-0.048 -0.2,-0.075 -0.147,-0.045 -0.306,-0.087 -0.475,-0.125 -0.556,-0.169 -1.022,-0.277 -1.4,-0.325 L 52.2,-14.3 h -0.05 c -0.1,0.033 -0.183,0.05 -0.25,0.05 -0.4,0.067 -1.083,0.183 -2.05,0.35 l -1.2,0.25 c -0.201,0.043 -0.409,0.093 -0.625,0.15 z"
         fill="#6A4929"
         id="path3692"
         inkscape:connector-curvature="0" /><path
         d="m 72.6,-6.15 c 0.033,0.066 0.05,0.133 0.05,0.2 0.067,0.167 0.05,0.333 -0.05,0.5 0.167,-0.233 0.167,-0.467 0,-0.7 z m -37.05,3.7 c 0.3,-0.133 0.733,-0.2 1.3,-0.2 1.267,0.667 2.267,1.017 3,1.05 0.367,0.033 2.05,0.05 5.05,0.05 l 8.9,0.05 c 0.567,0 1.284,-0.083 2.15,-0.25 0.966,-0.167 1.667,-0.267 2.1,-0.3 1.167,-0.067 3,-0.267 5.5,-0.6 0.5,-0.067 1.083,-0.233 1.75,-0.5 1,-0.367 1.567,-0.567 1.7,-0.6 1.8,-0.533 2.967,-0.917 3.5,-1.15 0.6,-0.167 1.017,-0.317 1.25,-0.45 L 72.1,-5.6 72.05,-5.75 c -0.333,-0.033 -0.716,-0.017 -1.15,0.05 -0.2,0.034 -0.533,0.1 -1,0.2 l -0.7,0.1 c 0.367,-0.2 0.716,-0.383 1.05,-0.55 -0.433,0.2 -0.917,0.45 -1.45,0.75 -2.033,0.7 -4.816,1.217 -8.35,1.55 -1.967,0.2 -4.934,0.483 -8.9,0.85 -1.033,0.133 -3.433,0.2 -7.2,0.2 h -5.6 c -0.333,0 -0.917,-0.033 -1.75,-0.1 -0.733,-0.033 -1.25,0.034 -1.55,0.2 0.033,0.033 0.067,0.05 0.1,0.05 z M 4.6,-14.2 c 0.333,0.233 0.617,0.434 0.85,0.6 1,0.7 1.966,1.3 2.9,1.8 -0.733,-0.767 -1.083,-1.367 -1.05,-1.8 0.034,-0.533 0.6,-0.95 1.7,-1.25 H 8.95 c 1.167,-0.867 3,-1.633 5.5,-2.3 -0.567,-0.4 -1.867,-0.684 -3.9,-0.85 -1.867,-0.133 -3.2,-0.117 -4,0.05 -0.633,0.133 -1.35,0.45 -2.15,0.95 -0.967,0.633 -1.433,1.217 -1.4,1.75 h 0.05 z m 47.95,-0.075 c 0.378,0.047 0.845,0.156 1.4,0.325 0.168,0.038 0.327,0.08 0.475,0.125 -0.729,-0.25 -1.354,-0.4 -1.875,-0.45 z m 4.25,-2.625 -0.3,0.05 0.45,-0.3 c 0.2,-0.4 0.133,-0.85 -0.2,-1.35 -2.333,-1.2 -4.3,-2 -5.9,-2.4 -2.167,-0.533 -4.583,-0.6 -7.25,-0.2 -1.533,0.233 -3.8,0.633 -6.8,1.2 -1.4,0.167 -5.3,0.35 -11.7,0.55 -4.9,0.6 -5.517,2.184 -1.85,4.75 l 1.5,-0.05 c -1.567,-0.434 -2.117,-0.95 -1.65,-1.55 0.4,-0.5 1.133,-0.833 2.2,-1 0.833,-0.1 2.233,-0.133 4.2,-0.1 1.833,0.033 3.2,-0.034 4.1,-0.2 6.633,-1.1 13.233,-1.483 19.8,-1.15 0.167,0.1 0.3,0.233 0.4,0.4 0.133,0.267 0.217,0.417 0.25,0.45 l 0.65,0.1 c 0.367,0.767 0.05,1.483 -0.95,2.15 1.133,-0.1 2.783,0.183 4.95,0.85 2.433,0.733 4.133,1.133 5.1,1.2 0.167,0.1 0.3,0.233 0.4,0.4 0.133,0.267 0.233,0.434 0.3,0.5 0.467,-0.033 0.833,0 1.1,0.1 -0.033,0.033 -0.033,0.2 0,0.5 0,0.2 -0.15,0.383 -0.45,0.55 0.233,-0.033 0.684,0.017 1.35,0.15 0.7,0.1 1.183,0.15 1.45,0.15 0.066,0.066 0.267,0.367 0.6,0.9 0.5,-0.033 0.867,0 1.1,0.1 0.367,0.667 0.6,1.167 0.7,1.5 0.333,-0.434 0.517,-0.883 0.55,-1.35 l -0.65,0.1 c 0.333,-0.333 0.533,-0.617 0.6,-0.85 -0.167,-0.533 -0.517,-1.05 -1.05,-1.55 -0.9,-0.833 -1.683,-1.233 -2.35,-1.2 -0.467,0 -1.217,0.217 -2.25,0.65 0.533,-0.333 0.8,-0.783 0.8,-1.35 -0.733,-0.2 -1.633,-0.533 -2.7,-1 l -2.6,-1.25 c -0.5,0.067 -1.3,0.2 -2.4,0.4 -0.966,0.167 -1.917,0.216 -2.85,0.15 0.6,-0.233 1.05,-0.567 1.35,-1 z m 21.05,9.6 c -0.434,-0.367 -1,-0.684 -1.7,-0.95 0.1,0 0.633,-0.083 1.6,-0.25 -0.333,-0.267 -0.617,-0.45 -0.85,-0.55 -0.433,0.167 -0.833,0.216 -1.2,0.15 -0.267,-0.4 -0.7,-0.817 -1.3,-1.25 -0.267,0.066 -0.85,0.5 -1.75,1.3 -0.667,0.633 -1.417,0.783 -2.25,0.45 v 0.3 c 1,0.3 2.25,0.483 3.75,0.55 1.767,0.033 3,0.117 3.7,0.25 z M 75.2,-4.5 75.65,-5 c 0.5,0 0.684,-0.133 0.55,-0.4 -0.134,-0.267 -0.417,-0.417 -0.85,-0.45 -0.4,0 -0.65,0.167 -0.75,0.5 -0.1,0.367 0.1,0.65 0.6,0.85 z m -9.5,-2.1 c -0.167,0.033 -0.517,0.033 -1.05,0 -0.433,0 -0.75,0.033 -0.95,0.1 0,0.133 0.083,0.317 0.25,0.55 1.066,0.034 1.767,0.05 2.1,0.05 0.867,-0.033 1.45,-0.184 1.75,-0.45 h 0.45 C 68.35,-6.983 67.833,-7.2 66.7,-7 c -0.267,0.033 -0.6,0.167 -1,0.4 z m -0.5,-1.2 c 0.208,-0.149 0.325,-0.308 0.35,-0.475 -0.025,0.137 -0.125,0.279 -0.3,0.425 z M 50.35,-8.25 c -7.733,0.133 -12.4,0.2 -14,0.2 -2.367,0 -5,0.083 -7.9,0.25 -0.133,0 -1.3,-0.034 -3.5,-0.1 -0.934,-0.033 -1.7,-0.017 -2.3,0.05 h 0.55 c 1.233,0.733 2.183,1.233 2.85,1.5 0.967,0.3 2.167,0.55 3.6,0.75 1.333,0.2 3,0.283 5,0.25 2.167,-0.1 3.767,-0.15 4.8,-0.15 3.8,0.067 7.05,-0.033 9.75,-0.3 2.167,-0.167 3.767,-0.284 4.8,-0.35 1.9,-0.133 3.433,-0.35 4.6,-0.65 1.566,-0.667 2.867,-1.017 3.9,-1.05 0.433,-0.033 0.85,-0.133 1.25,-0.3 0.433,-0.233 0.767,-0.4 1,-0.5 L 64.8,-8.7 c -0.5,-0.333 -1.2,-0.617 -2.1,-0.85 -0.867,-0.2 -1.467,-0.233 -1.8,-0.1 -0.5,0.167 -1.217,0.467 -2.15,0.9 -0.5,0.167 -1.35,0.317 -2.55,0.45 -1.167,0.2 -3.55,0.233 -7.15,0.1 z m 13.55,-1.7 0.4,0.1 c 0.667,0.067 1.017,-0.05 1.05,-0.35 0,-0.267 -0.367,-0.483 -1.1,-0.65 -0.733,-0.2 -1.15,-0.1 -1.25,0.3 -0.1,0.367 0.2,0.567 0.9,0.6 z m -50.05,-2.1 c -0.4,0.033 -0.667,0.083 -0.8,0.15 -0.219,0.125 -0.16,0.325 0.175,0.6 -0.358,-0.308 -0.333,-0.524 0.075,-0.65 l 0.55,-0.1 h 0.3 c 0.167,0.1 0.617,0.3 1.35,0.6 1.533,0.633 2.483,0.983 2.85,1.05 0.733,0.066 1.283,0.1 1.65,0.1 h 0.05 c 0.5,0.066 1.15,0.083 1.95,0.05 1.1,-0.067 1.683,-0.1 1.75,-0.1 l 10.8,0.05 c 1.833,0.033 3.2,0.05 4.1,0.05 1.667,0.033 3.033,0.017 4.1,-0.05 1.767,-0.2 3.117,-0.317 4.05,-0.35 1.2,-0.1 1.883,-0.167 2.05,-0.2 1.467,-0.467 2.967,-0.8 4.5,-1 1.233,-0.167 2.066,-0.45 2.5,-0.85 -0.633,-0.633 -1.883,-0.966 -3.75,-1 -1.167,0 -2.817,0.133 -4.95,0.4 0.304,-0.076 0.596,-0.143 0.875,-0.2 -0.247,0.046 -0.506,0.096 -0.775,0.15 -1.9,0.4 -3.533,0.617 -4.9,0.65 -6.667,0.133 -11.067,0.284 -13.2,0.45 -1.467,0.1 -3.683,0.117 -6.65,0.05 h -6.05 c -0.7,0.034 -1.3,0.067 -1.8,0.1 -0.3,0 -0.567,0.017 -0.8,0.05 z m 43.2,2.55 0.95,0.3 c 0.4,-0.2 0.667,-0.367 0.8,-0.5 0.2,-0.233 0.167,-0.533 -0.1,-0.9 -1.067,-0.066 -1.784,-0.083 -2.15,-0.05 -0.9,0.1 -1.283,0.367 -1.15,0.8 0.467,0.2 0.917,0.283 1.35,0.25 l 0.3,0.1 C 56.883,-9.6 56.65,-9.65 56.35,-9.65 55.983,-9.683 55.733,-9.733 55.6,-9.8 L 55.55,-10 c 0.934,-0.267 1.8,-0.15 2.6,0.35 z m -8.8,-5.275 v 0.225 l 0.05,0.15 c 0.733,0 0.934,-0.217 0.6,-0.65 -0.3,-0.467 -0.767,-0.617 -1.4,-0.45 0.133,0.067 0.25,0.15 0.35,0.25 0.1,-0.067 0.25,-0.067 0.45,0 0.267,0.233 0.383,0.467 0.35,0.7 H 48.3 c -0.031,-0.062 -0.048,-0.138 -0.05,-0.225 z m 8.3,2.475 c 0.2,-0.333 -0.15,-0.717 -1.05,-1.15 0.267,0.167 0.483,0.317 0.65,0.45 0.367,0.233 0.5,0.467 0.4,0.7 z M 41.6,-14.8 c -0.067,-0.034 -0.117,-0.067 -0.15,-0.1 0.533,-0.1 0.966,0.066 1.3,0.5 0.3,0.467 0.117,0.65 -0.55,0.55 l -0.15,-0.1 V -14 c -0.1,0.067 -0.183,0.133 -0.25,0.2 0.3,0.066 0.583,0.066 0.85,0 0.333,0 0.617,-0.1 0.85,-0.3 0.233,-0.233 0.2,-0.5 -0.1,-0.8 -0.267,-0.3 -0.7,-0.417 -1.3,-0.35 -0.533,0.067 -0.833,0.217 -0.9,0.45 z m -18.8,6.75 1.45,-0.25 c -0.2,-0.2 -0.567,-0.3 -1.1,-0.3 -0.467,0 -0.85,0.067 -1.15,0.2 0.167,0.167 0.433,0.283 0.8,0.35 z m 15.25,-6.8 h 0.15 c -0.133,-0.566 -0.8,-0.917 -2,-1.05 -1.1,-0.133 -1.85,-0.067 -2.25,0.2 0.167,0.167 0.417,0.284 0.75,0.35 0.2,-0.267 0.733,-0.367 1.6,-0.3 0.967,0.033 1.55,0.3 1.75,0.8 z m -7.25,1.85 0.95,-0.1 c -0.1,-0.467 -0.533,-0.733 -1.3,-0.8 -0.7,-0.033 -1.1,0.1 -1.2,0.4 0.767,0 1.283,0.167 1.55,0.5 z m -18.65,0.2 c -0.033,-0.4 -0.383,-0.617 -1.05,-0.65 -0.6,-0.033 -1,0.067 -1.2,0.3 0.3,0.367 0.8,0.483 1.5,0.35 l 0.4,0.15 c 0.133,-0.1 0.25,-0.15 0.35,-0.15 z"
         fill="#4F371F"
         id="path3694"
         inkscape:connector-curvature="0" /><path
         d="m 43.8,-0.45 h 1.575 c 1.125,-0.012 2.533,-0.063 4.225,-0.15 2.433,-0.133 4.183,-0.2 5.25,-0.2 2.233,-0.034 4.633,-0.35 7.2,-0.95 0.534,-0.133 1.483,-0.4 2.85,-0.8 l 1.2,-0.35 c 0.767,-0.233 1.617,-0.483 2.55,-0.75 l 1.4,-0.45 c 0.833,-0.267 1.5,-0.55 2,-0.85 V -5 c 0.1,-0.233 0.117,-0.433 0.05,-0.6 l -0.35,0.25 c -0.233,0.133 -0.65,0.283 -1.25,0.45 -0.533,0.233 -1.7,0.617 -3.5,1.15 -0.133,0.033 -0.7,0.233 -1.7,0.6 -0.667,0.267 -1.25,0.433 -1.75,0.5 -2.5,0.333 -4.333,0.533 -5.5,0.6 -0.433,0.033 -1.133,0.133 -2.1,0.3 -0.867,0.167 -1.583,0.25 -2.15,0.25 l -8.9,-0.05 c -3,0 -4.683,-0.017 -5.05,-0.05 -0.733,-0.033 -1.733,-0.383 -3,-1.05 -0.567,0 -1,0.066 -1.3,0.2 L 35.5,-2.4 c 0.233,0.267 0.717,0.533 1.45,0.8 0.8,0.267 1.316,0.45 1.55,0.55 1.067,0.367 2.167,0.55 3.3,0.55 z M 0.9,-17.65 c 0.367,0.566 0.717,1.017 1.05,1.35 0.2,0.267 0.35,0.45 0.45,0.55 0.167,0.167 0.367,0.333 0.6,0.5 -0.033,-0.533 0.433,-1.117 1.4,-1.75 0.8,-0.5 1.517,-0.817 2.15,-0.95 0.8,-0.167 2.133,-0.183 4,-0.05 2.034,0.167 3.333,0.45 3.9,0.85 -2.5,0.667 -4.333,1.433 -5.5,2.3 H 9 c 0.767,0.267 1.9,0.267 3.4,0 1.833,-0.3 3.033,-0.433 3.6,-0.4 0.8,0.033 2.167,0.267 4.1,0.7 1.7,0.367 3,0.533 3.9,0.5 l -0.75,-0.55 c -3.667,-2.566 -3.05,-4.15 1.85,-4.75 6.4,-0.2 10.3,-0.383 11.7,-0.55 3,-0.567 5.267,-0.967 6.8,-1.2 2.667,-0.4 5.083,-0.333 7.25,0.2 1.6,0.4 3.566,1.2 5.9,2.4 0.333,0.5 0.4,0.95 0.2,1.35 0.367,-0.267 0.55,-0.583 0.55,-0.95 0.033,-0.433 -0.217,-0.95 -0.75,-1.55 -0.567,0.033 -1.033,-0.033 -1.4,-0.2 -0.3,-0.133 -0.684,-0.483 -1.15,-1.05 -1.034,-0.067 -2.3,-0.267 -3.8,-0.6 -1.467,-0.367 -2.7,-0.567 -3.7,-0.6 -1.333,-0.066 -2.65,0.067 -3.95,0.4 -0.767,0.2 -1.95,0.534 -3.55,1 -1.567,0.3 -3.767,0.483 -6.6,0.55 -3.934,0.066 -6.233,0.117 -6.9,0.15 -1.233,0.067 -3.25,0.45 -6.05,1.15 -2.566,0.6 -4.6,0.883 -6.1,0.85 -0.9,-0.033 -3.133,-0.283 -6.7,-0.75 -3.267,-0.233 -5.25,0.133 -5.95,1.1 z m 70,7.65 c -0.033,0.467 -0.217,0.917 -0.55,1.35 l 0.05,0.25 c 0.833,0.333 1.583,0.183 2.25,-0.45 0.9,-0.8 1.483,-1.233 1.75,-1.3 0.6,0.433 1.033,0.85 1.3,1.25 0.367,0.066 0.767,0.017 1.2,-0.15 0.233,0.1 0.517,0.283 0.85,0.55 L 78.6,-8.55 C 78.533,-8.883 78.333,-9.333 78,-9.9 l -0.7,-0.95 c -0.6,-0.033 -1.167,-0.217 -1.7,-0.55 -1.267,-0.667 -2.017,-1.033 -2.25,-1.1 L 73,-12.55 h -0.55 c 0.367,1.3 -0.15,2.15 -1.55,2.55 z m -6.1,1.3 -0.05,0.05 c -0.233,0.1 -0.567,0.267 -1,0.5 -0.4,0.167 -0.817,0.267 -1.25,0.3 -1.033,0.033 -2.333,0.383 -3.9,1.05 -1.167,0.3 -2.7,0.517 -4.6,0.65 -1.033,0.066 -2.633,0.183 -4.8,0.35 -2.7,0.267 -5.95,0.367 -9.75,0.3 -1.034,0 -2.633,0.05 -4.8,0.15 -2,0.033 -3.667,-0.05 -5,-0.25 -1.433,-0.2 -2.633,-0.45 -3.6,-0.75 -0.667,-0.267 -1.617,-0.767 -2.85,-1.5 h -0.55 c -0.067,0.033 -0.117,0.05 -0.15,0.05 -0.133,0 -0.25,0.017 -0.35,0.05 -0.2,0.033 -0.367,0.083 -0.5,0.15 l -0.2,0.05 c 2.466,1.433 4.633,2.316 6.5,2.65 1.066,0.2 3.2,0.3 6.4,0.3 2.333,0.033 5.533,-0.05 9.6,-0.25 3.566,-0.167 6.733,-0.367 9.5,-0.6 1.2,-0.1 3.267,-0.433 6.2,-1 1.333,-0.2 2.333,-0.35 3,-0.45 1.2,-0.233 2.05,-0.533 2.55,-0.9 l 0.05,-0.05 c 0,-0.066 0.017,-0.183 0.05,-0.35 -0.067,-0.133 -0.233,-0.3 -0.5,-0.5 z m 6.05,-2.05 c 0.233,-0.767 -0.067,-1.55 -0.9,-2.35 -1.1,-1.033 -2.434,-1.55 -4,-1.55 l -0.6,0.05 -0.6,-0.9 c -1.933,-0.533 -3.033,-0.867 -3.3,-1 -0.633,-0.333 -1.083,-0.75 -1.35,-1.25 -0.5,-0.067 -1.017,0 -1.55,0.2 -0.167,0.066 -0.433,0.2 -0.8,0.4 -0.3,0.133 -0.617,0.217 -0.95,0.25 -0.3,0.433 -0.75,0.767 -1.35,1 0.933,0.066 1.883,0.017 2.85,-0.15 1.1,-0.2 1.9,-0.333 2.4,-0.4 l 2.6,1.25 c 1.067,0.467 1.967,0.8 2.7,1 0,0.567 -0.267,1.017 -0.8,1.35 1.033,-0.433 1.783,-0.65 2.25,-0.65 0.667,-0.033 1.45,0.367 2.35,1.2 0.533,0.5 0.883,1.017 1.05,1.55 z M 56.3,-12 c -0.033,-0.167 -0.1,-0.333 -0.2,-0.5 l -0.15,-0.1 c -0.034,-0.033 -0.067,-0.066 -0.1,-0.1 -0.434,0.4 -1.267,0.684 -2.5,0.85 -1.533,0.2 -3.033,0.533 -4.5,1 -0.167,0.033 -0.85,0.1 -2.05,0.2 -0.933,0.033 -2.283,0.15 -4.05,0.35 -1.067,0.066 -2.433,0.083 -4.1,0.05 -0.9,0 -2.267,-0.017 -4.1,-0.05 l -10.8,-0.05 c -0.067,0 -0.65,0.033 -1.75,0.1 -0.8,0.033 -1.45,0.017 -1.95,-0.05 H 20 c -0.367,0 -0.917,-0.034 -1.65,-0.1 -0.367,-0.067 -1.317,-0.417 -2.85,-1.05 -0.733,-0.3 -1.183,-0.5 -1.35,-0.6 h -0.3 l -0.55,0.1 c -0.408,0.126 -0.433,0.342 -0.075,0.65 l 0.575,0.4 c 1.233,0.667 2.467,1.15 3.7,1.45 l 1.35,-0.05 c 11.333,-0.2 19.983,-0.3 25.95,-0.3 2.367,0 4.717,-0.317 7.05,-0.95 0.967,-0.2 1.7,-0.367 2.2,-0.5 0.9,-0.2 1.567,-0.417 2,-0.65 z m 0.75,2.5 1.1,-0.15 c -0.8,-0.5 -1.667,-0.617 -2.6,-0.35 l 0.05,0.2 c 0.133,0.066 0.383,0.117 0.75,0.15 0.3,0 0.533,0.05 0.7,0.15 z m -9.2,-5.75 H 47.8 c 0.034,0.033 0.067,0.05 0.1,0.05 0.1,0.1 0.184,0.2 0.25,0.3 0.033,0.033 0.067,0.066 0.1,0.1 v 0.025 c 0.002,0.087 0.019,0.163 0.05,0.225 h 0.35 c 0.033,-0.233 -0.083,-0.467 -0.35,-0.7 -0.2,-0.067 -0.35,-0.067 -0.45,0 z m -6.25,0.45 c 0.1,0.133 0.25,0.4 0.45,0.8 v 0.05 l 0.15,0.1 c 0.667,0.1 0.85,-0.083 0.55,-0.55 -0.333,-0.434 -0.767,-0.6 -1.3,-0.5 0.033,0.033 0.083,0.067 0.15,0.1 z m -3.55,-0.05 c -0.2,-0.5 -0.783,-0.767 -1.75,-0.8 -0.867,-0.067 -1.4,0.033 -1.6,0.3 -0.067,0.067 -0.1,0.117 -0.1,0.15 h 1.55 l 1.45,0.3 0.45,0.15 z"
         fill="#47311B"
         id="path3696"
         inkscape:connector-curvature="0" /></g></symbol><use
     transform="matrix(0.58884013,0,0,-1.2444331,16.067186,17.15314)"
     y="-23"
     width="80.900002"
     height="23"
     xlink:href="#f"
     id="use3701"
     x="0" /><use
     transform="matrix(1.0099051,0,0,-1.1039805,9.513283,19.250117)"
     x="17.25"
     y="-14.35"
     width="45.599998"
     height="33.575001"
     xlink:href="#e"
     id="use3703" /></svg>